<svg width="81" height="33" viewBox="0 0 81 33" fill="none" xmlns="http://www.w3.org/2000/svg">
<g clip-path="url(#clip0_10_3)">
<path d="M36.9538 22.8309C36.3085 22.8309 35.866 22.4788 35.6266 21.7745L31.654 10.2142C31.5146 9.79627 31.5423 9.44412 31.7369 9.15773C31.9316 8.87135 32.2634 8.72901 32.7324 8.73071C33.0741 8.73071 33.3401 8.81242 33.5304 8.97582C33.7206 9.13923 33.8724 9.39544 33.9858 9.74446L37.0252 19.0535L40.2213 9.7641C40.4619 9.07347 40.8672 8.72786 41.4374 8.72729C41.741 8.72729 41.9816 8.8127 42.1591 8.98351C42.3366 9.15431 42.4909 9.42078 42.6153 9.78545L45.7493 19.1927L48.8841 9.74616C48.9684 9.4553 49.1255 9.19232 49.3395 8.98351C49.5291 8.8127 49.7888 8.72729 50.1184 8.72729C50.5238 8.72729 50.8213 8.86963 51.011 9.15431C51.2006 9.43899 51.2261 9.79114 51.0873 10.2108L47.079 21.7881C46.9524 22.1411 46.7865 22.4019 46.5813 22.5704C46.3761 22.739 46.1038 22.8244 45.7642 22.8266C45.4224 22.8266 45.1501 22.7412 44.9471 22.5704C44.7442 22.3996 44.5783 22.1323 44.4494 21.7685L41.3528 12.7157L38.2462 21.7915C38.119 22.1428 37.9575 22.4039 37.7618 22.5747C37.566 22.7455 37.2967 22.8309 36.9538 22.8309Z" fill="white"/>
<path d="M54.5228 22.8292C53.7126 22.8292 53.3076 22.399 53.3076 21.5387V10.0186C53.3076 9.15773 53.7126 8.72729 54.5228 8.72729C55.333 8.72729 55.7383 9.15773 55.7389 10.0186V21.5362C55.7389 22.3982 55.3335 22.8292 54.5228 22.8292Z" fill="white"/>
<path d="M59.9602 22.6721C59.1241 22.6721 58.706 22.2288 58.706 21.3423V10.0579C58.706 9.1714 59.1365 8.72786 59.9976 8.72729H66.6279C67.286 8.72729 67.6151 9.05325 67.6151 9.70517C67.6151 10.3833 67.286 10.7223 66.6279 10.7223H61.1381V14.6142H66.2289C66.8865 14.6142 67.2155 14.9401 67.2161 15.5921C67.2161 16.2702 66.887 16.6092 66.2289 16.6092H61.1381V21.3423C61.1381 22.2288 60.7455 22.6721 59.9602 22.6721Z" fill="white"/>
<path d="M75.0005 22.6721C74.1893 22.6721 73.7839 22.2419 73.7845 21.3816V10.8205H70.0773C69.3805 10.8205 69.0321 10.4684 69.0321 9.7641C69.0321 9.07347 69.3805 8.72786 70.0773 8.72729H79.9171C80.6128 8.72729 80.9609 9.0729 80.9615 9.7641C80.9615 10.4678 80.6134 10.82 79.9171 10.8205H76.2158V21.379C76.2158 22.2411 75.8107 22.6721 75.0005 22.6721Z" fill="white"/>
<path d="M25.7775 1.50606L36.3125 32.5L0 29.1496V0.5L25.7775 1.50606Z" fill="#4EAC5B"/>
<path d="M14.3763 22.8616C13.5415 22.8634 12.7094 22.7651 11.8968 22.5686C11.1541 22.3993 10.4445 22.1019 9.79812 21.689C9.50613 21.4931 9.32889 21.252 9.26639 20.9656C9.2013 20.6947 9.22463 20.4093 9.33276 20.1534C9.3792 20.0344 9.44856 19.9262 9.53666 19.8355C9.62476 19.7448 9.72979 19.6734 9.84541 19.6256C10.0793 19.5277 10.3484 19.5766 10.6525 19.7725C11.2028 20.1098 11.7985 20.3613 12.4202 20.5189C13.061 20.6778 13.718 20.7567 14.3771 20.7538C15.3764 20.7538 16.1044 20.581 16.5612 20.2354C17.018 19.8898 17.2459 19.4431 17.2448 18.8954C17.2448 18.4399 17.0833 18.0815 16.7603 17.8202C16.4374 17.5588 15.8843 17.3436 15.1013 17.1745L13.0117 16.7244C10.6265 16.2006 9.43396 14.9412 9.43396 12.9462C9.43396 12.0853 9.65517 11.3354 10.0976 10.6966C10.54 10.0578 11.1541 9.56246 11.94 9.21059C12.7258 8.85873 13.6314 8.68251 14.6566 8.68194C15.3882 8.67823 16.1169 8.77707 16.8225 8.97573C17.4779 9.15814 18.1001 9.44888 18.6649 9.8366C18.7804 9.9125 18.8802 10.0112 18.9585 10.127C19.0368 10.2428 19.0921 10.3734 19.1211 10.5113C19.1731 10.7629 19.1394 11.0253 19.0257 11.2543C18.9708 11.366 18.8945 11.4651 18.8014 11.5457C18.7083 11.6262 18.6004 11.6866 18.4841 11.7232C18.2374 11.8086 17.9493 11.7533 17.6197 11.5575C17.1746 11.2929 16.6949 11.0954 16.1954 10.9708C15.6846 10.8498 15.1617 10.7907 14.6376 10.7948C13.7644 10.7948 13.0805 10.9839 12.5862 11.3619C12.0918 11.74 11.8448 12.2353 11.8454 12.8479C11.8454 13.3177 11.9972 13.6926 12.3008 13.9727C12.6044 14.2528 13.1251 14.4706 13.8628 14.6261L15.9366 15.0761C17.1908 15.3494 18.1249 15.7796 18.7387 16.3666C19.3526 16.9536 19.6598 17.7359 19.6603 18.7135C19.6738 19.4894 19.4476 20.2496 19.0141 20.8845C18.5833 21.5108 17.9723 21.9964 17.1809 22.3414C16.3895 22.6865 15.4546 22.8598 14.3763 22.8616Z" fill="white"/>
</g>
<defs>
<clipPath id="clip0_10_3">
<rect width="80.9616" height="32" fill="white" transform="translate(0 0.5)"/>
</clipPath>
</defs>
</svg>
